<svg xmlns="http://www.w3.org/2000/svg" width="47.031" height="55" viewBox="0 0 47.031 55">
  <metadata><?xpacket begin="﻿" id="W5M0MpCehiHzreSzNTczkc9d"?>
<x:xmpmeta xmlns:x="adobe:ns:meta/" x:xmptk="Adobe XMP Core 5.6-c138 79.159824, 2016/09/14-01:09:01        ">
   <rdf:RDF xmlns:rdf="http://www.w3.org/1999/02/22-rdf-syntax-ns#">
      <rdf:Description rdf:about=""/>
   </rdf:RDF>
</x:xmpmeta>
                                                                                                    
                                                                                                    
                                                                                                    
                                                                                                    
                                                                                                    
                                                                                                    
                                                                                                    
                                                                                                    
                                                                                                    
                                                                                                    
                                                                                                    
                                                                                                    
                                                                                                    
                                                                                                    
                                                                                                    
                                                                                                    
                                                                                                    
                                                                                                    
                                                                                                    
                                                                                                    
                           
<?xpacket end="w"?></metadata>
<defs>
    <style>
      .cls-1 {
        fill: #fff;
        fill-rule: evenodd;
      }
    </style>
  </defs>
  <path id="_01-Employee" data-name="01-Employee" class="cls-1" d="M23.3,29.636h0.366a10.58,10.58,0,0,0,8.067-3.474c4.405-4.943,3.673-13.417,3.593-14.225-0.286-6.071-3.169-8.975-5.549-10.33A12.767,12.767,0,0,0,23.62,0H23.426A12.789,12.789,0,0,0,17.27,1.56c-2.4,1.355-5.332,4.26-5.618,10.376-0.08.809-.812,9.282,3.593,14.226A10.538,10.538,0,0,0,23.3,29.636ZM14.707,12.221c0-.034.011-0.068,0.011-0.091,0.378-8.166,6.2-9.043,8.7-9.043h0.137c3.089,0.068,8.341,1.321,8.7,9.043a0.22,0.22,0,0,0,.011.091c0.011,0.08.812,7.825-2.826,11.9A7.516,7.516,0,0,1,23.54,26.56H23.426a7.491,7.491,0,0,1-5.881-2.437C13.917,20.068,14.7,12.289,14.707,12.221ZM47,43.69V43.656c0-.091-0.011-0.182-0.011-0.285-0.069-2.255-.218-7.528-5.183-9.214-0.034-.011-0.08-0.023-0.114-0.034a33.085,33.085,0,0,1-9.5-4.305,1.548,1.548,0,0,0-2.151.376,1.531,1.531,0,0,0,.378,2.141,35.708,35.708,0,0,0,10.447,4.749c2.666,0.945,2.964,3.781,3.044,6.378a2.267,2.267,0,0,0,.011.285,20.581,20.581,0,0,1-.24,3.519c-1.854,1.048-9.119,4.67-20.173,4.67C12.5,51.936,5.187,48.3,3.322,47.255a19.484,19.484,0,0,1-.24-3.52c0-.091.011-0.182,0.011-0.285,0.08-2.6.378-5.433,3.044-6.378a36.041,36.041,0,0,0,10.447-4.749,1.531,1.531,0,0,0,.378-2.141,1.548,1.548,0,0,0-2.151-.376,32.721,32.721,0,0,1-9.5,4.305c-0.046.011-.08,0.023-0.114,0.034-4.966,1.7-5.115,6.97-5.183,9.214A2.272,2.272,0,0,1,0,43.645v0.034a17.39,17.39,0,0,0,.584,5.159,1.463,1.463,0,0,0,.595.718C1.525,49.784,9.752,55,23.517,55s21.992-5.228,22.335-5.444a1.525,1.525,0,0,0,.595-0.718A18.242,18.242,0,0,0,47,43.69Z"/>
</svg>
