<svg xmlns="http://www.w3.org/2000/svg" width="69" height="55" viewBox="0 0 69 55">
  <metadata><?xpacket begin="﻿" id="W5M0MpCehiHzreSzNTczkc9d"?>
<x:xmpmeta xmlns:x="adobe:ns:meta/" x:xmptk="Adobe XMP Core 5.6-c138 79.159824, 2016/09/14-01:09:01        ">
   <rdf:RDF xmlns:rdf="http://www.w3.org/1999/02/22-rdf-syntax-ns#">
      <rdf:Description rdf:about=""/>
   </rdf:RDF>
</x:xmpmeta>
                                                                                                    
                                                                                                    
                                                                                                    
                                                                                                    
                                                                                                    
                                                                                                    
                                                                                                    
                                                                                                    
                                                                                                    
                                                                                                    
                                                                                                    
                                                                                                    
                                                                                                    
                                                                                                    
                                                                                                    
                                                                                                    
                                                                                                    
                                                                                                    
                                                                                                    
                                                                                                    
                           
<?xpacket end="w"?></metadata>
<defs>
    <style>
      .cls-1 {
        fill: #fff;
        fill-rule: evenodd;
      }
    </style>
  </defs>
  <path id="_01-Marketing" data-name="01-Marketing" class="cls-1" d="M52.654,25c0,13.807-4.7,25-10.5,25s-10.5-11.193-10.5-25,4.7-25,10.5-25S52.654,11.194,52.654,25Zm-4.363.118c0,10.948-2.753,19.823-6.149,19.823s-6.149-8.875-6.149-19.823S38.747,5.3,42.143,5.3,48.291,14.17,48.291,25.118Zm-4.3.044c0,3.249-2.1,5.882-4.693,5.882,0,0-.061-11.654,0-11.765C41.888,19.281,43.989,21.914,43.989,25.163ZM32.512,4.737s-5.363,6.343-10.621,7.591a69.583,69.583,0,0,1-14.986,1.4c-2.208-.1-4.469,3.275-4.943,4.783S0.227,27.3,1.647,30.993s3.786,5.719,5.468,5.823,9.727-.156,12.514.728,7.94,1.924,12.3,7.071c0,0-1.945-4.835-2-6.655a21.658,21.658,0,0,0-4.943-3.327c-2-.728-3.944-1.3-3.944-1.3a2.42,2.42,0,0,1-1.84-1.612,16.115,16.115,0,0,1-1.157-6.655,31.872,31.872,0,0,1,1-6.083S20.839,17.215,22,17.007a38.915,38.915,0,0,0,8.15-4S31.513,6.557,32.512,4.737ZM8.745,39.779A32.87,32.87,0,0,1,9.9,44.459a61.821,61.821,0,0,0,1.735,7.747c0.421,1.04,2.261,2.964,4,2.808a76.934,76.934,0,0,1,8.045-.468c1.209,0.156,1.735-1.508,1.735-2.236s-0.21-3.327-1.84-3.587A5.116,5.116,0,0,1,19.84,45.55c-0.841-1.768-1.42-4.107-2.366-4.835a8.133,8.133,0,0,0-4-1.248C12.584,39.519,8.745,39.779,8.745,39.779ZM59.959,23.454C61.169,23.4,66.795,23.038,68,23.09a2.007,2.007,0,0,1,2,2.08c0,1.144-.421,2.184-1.367,2.184s-8.413-.52-9.254-0.52-1.157-.728-1.157-1.768S58.75,23.506,59.959,23.454ZM57.947,37.9c1.167,0.319,6.633,1.685,7.767,2.1a1.992,1.992,0,0,1,1.253,2.587c-0.356,1.088-1.08,1.95-1.981,1.661S57.145,41.2,56.344,40.94s-0.874-1.045-.55-2.034S56.78,37.583,57.947,37.9ZM56.6,9.293c1.134-.42,6.369-2.49,7.535-2.811a2.024,2.024,0,0,1,2.551,1.365c0.358,1.088.284,2.205-.616,2.5s-8.162,2.083-8.962,2.341-1.328-.338-1.654-1.326S55.468,9.713,56.6,9.293Z" transform="translate(-1)"/>
</svg>
