<?xml version="1.0" encoding="utf-8"?>
<!-- Generator: Adobe Illustrator 24.1.2, SVG Export Plug-In . SVG Version: 6.00 Build 0)  -->
<svg version="1.1" id="Layer_1" xmlns="http://www.w3.org/2000/svg" xmlns:xlink="http://www.w3.org/1999/xlink" x="0px" y="0px"
	 viewBox="0 0 50 50" style="enable-background:new 0 0 50 50;" xml:space="preserve">
<style type="text/css">
	.st0{fill:#DDDDDD;}
	.st1{fill:#FFFFFF;}
</style>
<ellipse class="st0" cx="24.18" cy="20.32" rx="3.51" ry="4.05"/>
<ellipse class="st0" cx="33.15" cy="15.86" rx="2.09" ry="2.42"/>
<ellipse class="st0" cx="19.03" cy="32.24" rx="4.59" ry="5.37"/>
<path class="st1" d="M14.03,12.27c0,0,2.31-3.31,2.89-4.01c0.58-0.7,2.41-2.82,2.82-3.18c0.41-0.36,1.1-0.81,1.2-0.79
	c0.1,0.02-0.53,1.47-1.09,2.28c-0.55,0.81-2.15,2.43-2.56,2.88c-0.41,0.45-0.81,1.05-1.46,1.67S14.56,12.24,14.03,12.27z"/>
<path class="st1" d="M17.8,16.45c0,0,0.73-5.12,1.52-7.4s1.31-3.89,1.91-4.75s1.38-1.85,1.85-1.91c0,0-0.7,1.57-0.84,2.28
	c0,0-0.77,1.12-1.29,2.71c-0.51,1.59-1.32,4.07-1.65,5.43C18.98,14.16,18.13,16.15,17.8,16.45z"/>
<path class="st1" d="M24.56,0.63c0,0-1.31,1.43-1.67,2.92c-0.36,1.49-0.81,3.6-0.91,5.25c-0.1,1.65-0.31,5.31-0.39,6.85
	c-0.08,1.54-0.18,4.63-0.19,5.1c0,0,0.87-2.48,0.97-3.55c0.1-1.07,0.28-3.42,0.39-4.94c0.11-1.51,0.49-5.19,0.7-6.47
	s0.53-2.28,0.63-2.43C24.18,3.22,24.56,0.63,24.56,0.63z"/>
<path class="st1" d="M36.15,12.27c0,0-2.31-3.31-2.89-4.01c-0.58-0.7-2.41-2.82-2.82-3.18c-0.41-0.36-1.1-0.81-1.2-0.79
	c-0.1,0.02,0.53,1.47,1.09,2.28s2.15,2.43,2.56,2.88c0.41,0.45,0.81,1.05,1.46,1.67C34.99,11.75,35.62,12.24,36.15,12.27z"/>
<path class="st1" d="M32.38,16.45c0,0-0.73-5.12-1.52-7.4s-1.31-3.89-1.91-4.75c-0.6-0.86-1.38-1.85-1.85-1.91
	c0,0,0.7,1.57,0.84,2.28c0,0,0.77,1.12,1.29,2.71s1.32,4.07,1.65,5.43S32.05,16.15,32.38,16.45z"/>
<path class="st1" d="M25.62,0.63c0,0,1.31,1.43,1.67,2.92s0.81,3.6,0.91,5.25c0.1,1.65,0.31,5.31,0.39,6.85s0.18,4.63,0.19,5.1
	c0,0-0.87-2.48-0.97-3.55s-0.28-3.42-0.39-4.94c-0.11-1.51-0.49-5.19-0.7-6.47s-0.53-2.28-0.63-2.43
	C25.99,3.22,25.62,0.63,25.62,0.63z"/>
<path class="st1" d="M25.06,0c0,0-0.63,1.64-0.66,5.9c-0.03,4.26,0.06,9.53,0.1,10.69c0.03,1.17,0.39,7.47,0.57,8.41
	c0,0,0.55-6.58,0.63-8.43c0.08-1.85,0.05-8.98,0-10.69C25.64,4.16,25.63,0.94,25.06,0z"/>
<path class="st1" d="M14.01,37.73c0,0,2.31,3.31,2.89,4.01c0.58,0.7,2.41,2.82,2.82,3.18c0.41,0.36,1.1,0.81,1.2,0.79
	c0.1-0.02-0.53-1.47-1.09-2.28s-2.15-2.43-2.56-2.88c-0.41-0.45-0.81-1.05-1.46-1.67C15.17,38.25,14.53,37.76,14.01,37.73z"/>
<path class="st1" d="M17.78,33.55c0,0,0.73,5.12,1.52,7.4s1.31,3.89,1.91,4.75c0.6,0.86,1.38,1.85,1.85,1.91c0,0-0.7-1.57-0.84-2.28
	c0,0-0.77-1.12-1.29-2.71c-0.51-1.59-1.32-4.07-1.65-5.43C18.96,35.84,18.1,33.85,17.78,33.55z"/>
<path class="st1" d="M24.53,49.37c0,0-1.31-1.43-1.67-2.92c-0.36-1.49-0.81-3.6-0.91-5.25c-0.1-1.65-0.31-5.31-0.39-6.85
	s-0.18-4.63-0.19-5.1c0,0,0.87,2.48,0.97,3.55c0.1,1.07,0.28,3.42,0.39,4.94c0.11,1.51,0.49,5.19,0.7,6.47
	c0.21,1.28,0.53,2.28,0.63,2.43C24.16,46.78,24.53,49.37,24.53,49.37z"/>
<path class="st1" d="M36.12,37.73c0,0-2.31,3.31-2.89,4.01s-2.41,2.82-2.82,3.18c-0.41,0.36-1.1,0.81-1.2,0.79
	c-0.1-0.02,0.53-1.47,1.09-2.28s2.15-2.43,2.56-2.88s0.81-1.05,1.46-1.67C34.96,38.25,35.6,37.76,36.12,37.73z"/>
<path class="st1" d="M32.35,33.55c0,0-0.73,5.12-1.52,7.4s-1.31,3.89-1.91,4.75c-0.6,0.86-1.38,1.85-1.85,1.91
	c0,0,0.7-1.57,0.84-2.28c0,0,0.77-1.12,1.29-2.71c0.51-1.59,1.32-4.07,1.65-5.43C31.17,35.84,32.03,33.85,32.35,33.55z"/>
<path class="st1" d="M25.6,49.37c0,0,1.31-1.43,1.67-2.92c0.36-1.49,0.81-3.6,0.91-5.25c0.1-1.65,0.31-5.31,0.39-6.85
	s0.18-4.63,0.19-5.1c0,0-0.87,2.48-0.97,3.55c-0.1,1.07-0.28,3.42-0.39,4.94c-0.11,1.51-0.49,5.19-0.7,6.47
	c-0.21,1.28-0.53,2.28-0.63,2.43C25.97,46.78,25.6,49.37,25.6,49.37z"/>
<path class="st1" d="M25.04,50c0,0-0.63-1.64-0.66-5.9s0.06-9.53,0.1-10.69c0.03-1.17,0.39-7.47,0.57-8.41c0,0,0.55,6.58,0.63,8.43
	c0.08,1.85,0.05,8.98,0,10.69C25.62,45.84,25.6,49.06,25.04,50z"/>
<path class="st1" d="M36.13,12.29c0,0,2.83,2.66,3.42,3.33c0.59,0.67,2.41,2.78,2.71,3.24s0.69,1.27,0.68,1.38
	c-0.01,0.11-1.26-0.61-1.95-1.25c-0.69-0.63-2.07-2.48-2.46-2.94c-0.39-0.47-0.9-0.93-1.42-1.68
	C36.58,13.62,36.15,12.89,36.13,12.29z"/>
<path class="st1" d="M32.56,16.62c0,0,4.37,0.84,6.32,1.75c1.95,0.91,3.32,1.51,4.05,2.2c0.73,0.69,1.58,1.58,1.63,2.12
	c0,0-1.34-0.8-1.95-0.97c0,0-0.95-0.89-2.31-1.48c-1.36-0.59-3.47-1.52-4.63-1.89C34.52,17.98,32.81,16.99,32.56,16.62z"/>
<path class="st1" d="M46.07,24.39c0,0-1.22-1.51-2.49-1.92c-1.27-0.41-3.07-0.93-4.48-1.04s-4.54-0.35-5.85-0.45
	c-1.31-0.09-3.96-0.2-4.36-0.22c0,0,2.12,1.01,3.03,1.12c0.91,0.11,2.92,0.32,4.21,0.45c1.29,0.13,4.43,0.56,5.52,0.8
	c1.09,0.24,1.95,0.61,2.07,0.73C43.85,23.96,46.07,24.39,46.07,24.39z"/>
<path class="st1" d="M36.13,37.72c0,0,2.83-2.66,3.42-3.33c0.59-0.67,2.41-2.78,2.71-3.24s0.69-1.27,0.68-1.38
	c-0.01-0.11-1.26,0.61-1.95,1.25c-0.69,0.63-2.07,2.48-2.46,2.94c-0.39,0.47-0.9,0.93-1.42,1.68S36.15,37.11,36.13,37.72z"/>
<path class="st1" d="M32.56,33.38c0,0,4.37-0.84,6.32-1.75c1.95-0.91,3.32-1.51,4.05-2.2c0.73-0.69,1.58-1.58,1.63-2.12
	c0,0-1.34,0.8-1.95,0.97c0,0-0.95,0.89-2.31,1.48c-1.36,0.59-3.47,1.52-4.63,1.89C34.52,32.02,32.81,33.01,32.56,33.38z"/>
<path class="st1" d="M46.07,25.61c0,0-1.22,1.51-2.49,1.92c-1.27,0.41-3.07,0.93-4.48,1.04s-4.54,0.35-5.85,0.45
	c-1.31,0.09-3.96,0.2-4.36,0.22c0,0,2.12-1.01,3.03-1.12s2.92-0.32,4.21-0.45c1.29-0.13,4.43-0.56,5.52-0.8
	c1.09-0.24,1.95-0.61,2.07-0.73C43.85,26.04,46.07,25.61,46.07,25.61z"/>
<path class="st1" d="M46.61,24.97c0,0-1.4-0.73-5.04-0.76c-3.64-0.04-8.13,0.07-9.13,0.11c-1,0.04-6.38,0.45-7.18,0.65
	c0,0,5.62,0.63,7.19,0.73c1.58,0.09,7.66,0.06,9.13,0S45.8,25.62,46.61,24.97z"/>
<path class="st1" d="M14.02,12.27c0,0-2.83,2.66-3.42,3.33s-2.41,2.78-2.71,3.24s-0.69,1.27-0.68,1.38s1.26-0.61,1.95-1.25
	c0.69-0.63,2.07-2.48,2.46-2.94c0.39-0.47,0.9-0.93,1.42-1.68S14,12.87,14.02,12.27z"/>
<path class="st1" d="M17.58,16.61c0,0-4.37,0.84-6.32,1.75c-1.95,0.91-3.32,1.51-4.05,2.2c-0.73,0.69-1.58,1.58-1.63,2.12
	c0,0,1.34-0.8,1.95-0.97c0,0,0.95-0.89,2.31-1.48s3.47-1.52,4.63-1.89S17.33,16.98,17.58,16.61z"/>
<path class="st1" d="M4.08,24.37c0,0,1.22-1.51,2.49-1.92c1.27-0.41,3.07-0.93,4.48-1.04c1.41-0.11,4.54-0.35,5.85-0.45
	s3.96-0.2,4.36-0.22c0,0-2.12,1.01-3.03,1.12c-0.91,0.11-2.92,0.32-4.21,0.45s-4.43,0.56-5.52,0.8c-1.09,0.24-1.95,0.61-2.07,0.73
	S4.08,24.37,4.08,24.37z"/>
<path class="st1" d="M14.02,37.7c0,0-2.83-2.66-3.42-3.33s-2.41-2.78-2.71-3.24s-0.69-1.27-0.68-1.38S8.47,30.37,9.16,31
	c0.69,0.63,2.07,2.48,2.46,2.94c0.39,0.47,0.9,0.93,1.42,1.68S14,37.1,14.02,37.7z"/>
<path class="st1" d="M17.58,33.37c0,0-4.37-0.84-6.32-1.75c-1.95-0.91-3.32-1.51-4.05-2.2c-0.73-0.69-1.58-1.58-1.63-2.12
	c0,0,1.34,0.8,1.95,0.97c0,0,0.95,0.89,2.31,1.48s3.47,1.52,4.63,1.89C15.63,32.01,17.33,32.99,17.58,33.37z"/>
<path class="st1" d="M4.08,25.6c0,0,1.22,1.51,2.49,1.92c1.27,0.41,3.07,0.93,4.48,1.04c1.41,0.11,4.54,0.35,5.85,0.45
	s3.96,0.2,4.36,0.22c0,0-2.12-1.01-3.03-1.12c-0.91-0.11-2.92-0.32-4.21-0.45c-1.29-0.13-4.43-0.56-5.52-0.8
	c-1.09-0.24-1.95-0.61-2.07-0.73S4.08,25.6,4.08,25.6z"/>
<path class="st1" d="M3.54,24.95c0,0,1.4-0.73,5.04-0.76c3.64-0.04,8.13,0.07,9.13,0.11c1,0.04,6.38,0.45,7.18,0.65
	c0,0-5.62,0.63-7.19,0.73s-7.66,0.06-9.13,0C7.1,25.62,4.34,25.6,3.54,24.95z"/>
</svg>
